<svg width="380" height="76" viewBox="0 0 380 76" fill="none" xmlns="http://www.w3.org/2000/svg">
<rect x="200" y="14" width="125" height="62" rx="9" fill="#10AC45"/>
<path d="M98.9888 45.8182C98.9888 49.7836 98.2372 53.1572 96.7338 55.9389C95.2424 58.7206 93.2064 60.8454 90.6259 62.3132C88.0572 63.7692 85.169 64.4972 81.9611 64.4972C78.7296 64.4972 75.8295 63.7633 73.2608 62.2955C70.6922 60.8277 68.6621 58.7029 67.1706 55.9212C65.6792 53.1394 64.9334 49.7718 64.9334 45.8182C64.9334 41.8527 65.6792 38.4792 67.1706 35.6974C68.6621 32.9157 70.6922 30.7969 73.2608 29.3409C75.8295 27.8731 78.7296 27.1392 81.9611 27.1392C85.169 27.1392 88.0572 27.8731 90.6259 29.3409C93.2064 30.7969 95.2424 32.9157 96.7338 35.6974C98.2372 38.4792 98.9888 41.8527 98.9888 45.8182ZM91.1941 45.8182C91.1941 43.2495 90.8094 41.0833 90.04 39.3196C89.2824 37.5559 88.2111 36.2183 86.8262 35.3068C85.4412 34.3954 83.8195 33.9396 81.9611 33.9396C80.1027 33.9396 78.481 34.3954 77.0961 35.3068C75.7111 36.2183 74.6339 37.5559 73.8645 39.3196C73.1069 41.0833 72.7282 43.2495 72.7282 45.8182C72.7282 48.3868 73.1069 50.553 73.8645 52.3168C74.6339 54.0805 75.7111 55.4181 77.0961 56.3295C78.481 57.241 80.1027 57.6967 81.9611 57.6967C83.8195 57.6967 85.4412 57.241 86.8262 56.3295C88.2111 55.4181 89.2824 54.0805 90.04 52.3168C90.8094 50.553 91.1941 48.3868 91.1941 45.8182ZM104.542 74.2273V36.7273H111.999V41.3082H112.337C112.668 40.5743 113.147 39.8286 113.775 39.071C114.414 38.3016 115.243 37.6624 116.261 37.1534C117.29 36.6326 118.569 36.3722 120.096 36.3722C122.085 36.3722 123.919 36.893 125.6 37.9347C127.281 38.9645 128.625 40.5211 129.631 42.6044C130.637 44.6759 131.14 47.2741 131.14 50.3991C131.14 53.4413 130.649 56.0099 129.666 58.1051C128.696 60.1884 127.37 61.7687 125.689 62.8459C124.02 63.9112 122.15 64.4439 120.078 64.4439C118.61 64.4439 117.362 64.2012 116.332 63.7159C115.314 63.2306 114.479 62.621 113.828 61.8871C113.177 61.1413 112.68 60.3897 112.337 59.6321H112.106V74.2273H104.542ZM111.946 50.3636C111.946 51.9853 112.171 53.3999 112.621 54.6072C113.071 55.8146 113.722 56.7557 114.574 57.4304C115.426 58.0933 116.462 58.4247 117.681 58.4247C118.912 58.4247 119.954 58.0874 120.806 57.4126C121.658 56.7261 122.304 55.7791 122.741 54.5717C123.191 53.3525 123.416 51.9498 123.416 50.3636C123.416 48.7893 123.197 47.4044 122.759 46.2088C122.321 45.0133 121.676 44.0781 120.824 43.4034C119.972 42.7287 118.924 42.3913 117.681 42.3913C116.45 42.3913 115.408 42.7169 114.556 43.3679C113.716 44.0189 113.071 44.9422 112.621 46.1378C112.171 47.3333 111.946 48.742 111.946 50.3636ZM148.612 64.5327C145.806 64.5327 143.391 63.9645 141.367 62.8281C139.355 61.6799 137.804 60.0582 136.715 57.9631C135.626 55.8561 135.082 53.3643 135.082 50.4879C135.082 47.6825 135.626 45.2204 136.715 43.1016C137.804 40.9827 139.337 39.3314 141.314 38.1477C143.303 36.964 145.634 36.3722 148.31 36.3722C150.109 36.3722 151.784 36.6622 153.335 37.2422C154.897 37.8104 156.258 38.6686 157.418 39.8168C158.59 40.965 159.502 42.4091 160.153 44.1491C160.804 45.8774 161.129 47.9015 161.129 50.2216V52.299H138.1V47.6115H154.009C154.009 46.5225 153.772 45.5578 153.299 44.7173C152.826 43.8769 152.169 43.2199 151.328 42.7464C150.5 42.2611 149.535 42.0185 148.434 42.0185C147.286 42.0185 146.268 42.2848 145.38 42.8175C144.504 43.3383 143.817 44.0426 143.32 44.9304C142.823 45.8063 142.569 46.7829 142.557 47.8601V52.3168C142.557 53.6662 142.805 54.8321 143.303 55.8146C143.812 56.7971 144.528 57.5547 145.451 58.0874C146.374 58.62 147.469 58.8864 148.736 58.8864C149.576 58.8864 150.346 58.768 151.044 58.5312C151.742 58.2945 152.34 57.9394 152.837 57.4659C153.335 56.9924 153.713 56.4124 153.974 55.7259L160.969 56.1875C160.614 57.8684 159.886 59.3362 158.786 60.5909C157.696 61.8338 156.288 62.8045 154.56 63.5028C152.843 64.1894 150.861 64.5327 148.612 64.5327ZM173.629 48.233V64H166.065V36.7273H173.274V41.5391H173.594C174.197 39.9529 175.21 38.6982 176.63 37.7749C178.05 36.8397 179.773 36.3722 181.797 36.3722C183.691 36.3722 185.342 36.7865 186.751 37.6151C188.159 38.4437 189.254 39.6274 190.036 41.1662C190.817 42.6932 191.207 44.5161 191.207 46.6349V64H183.643V47.9844C183.655 46.3153 183.229 45.0133 182.365 44.0781C181.501 43.1312 180.311 42.6577 178.796 42.6577C177.778 42.6577 176.879 42.8767 176.097 43.3146C175.328 43.7526 174.724 44.3918 174.286 45.2322C173.86 46.0608 173.641 47.0611 173.629 48.233Z" fill="#10AC45"/>
<path d="M208.883 64V27.6364H223.23C225.988 27.6364 228.337 28.1631 230.279 29.2166C232.22 30.2583 233.7 31.7083 234.718 33.5668C235.748 35.4134 236.262 37.544 236.262 39.9588C236.262 42.3736 235.742 44.5043 234.7 46.3509C233.658 48.1974 232.149 49.6357 230.172 50.6655C228.207 51.6953 225.828 52.2102 223.034 52.2102H213.89V46.049H221.792C223.271 46.049 224.49 45.7945 225.449 45.2855C226.42 44.7647 227.142 44.0485 227.615 43.1371C228.101 42.2138 228.343 41.1544 228.343 39.9588C228.343 38.7514 228.101 37.6979 227.615 36.7983C227.142 35.8868 226.42 35.1825 225.449 34.6854C224.479 34.1764 223.248 33.9219 221.756 33.9219H216.571V64H208.883ZM248.159 64.5149C246.419 64.5149 244.868 64.2131 243.507 63.6094C242.145 62.9938 241.068 62.0883 240.275 60.8928C239.494 59.6854 239.103 58.1821 239.103 56.3828C239.103 54.8677 239.382 53.5952 239.938 52.5653C240.494 51.5355 241.252 50.7069 242.211 50.0795C243.169 49.4522 244.258 48.9787 245.478 48.6591C246.709 48.3395 247.999 48.1146 249.348 47.9844C250.935 47.8187 252.213 47.6648 253.184 47.5227C254.154 47.3688 254.859 47.1439 255.297 46.848C255.734 46.5521 255.953 46.1141 255.953 45.5341V45.4276C255.953 44.303 255.598 43.433 254.888 42.8175C254.19 42.2019 253.195 41.8942 251.905 41.8942C250.544 41.8942 249.461 42.196 248.656 42.7997C247.851 43.3916 247.318 44.1373 247.058 45.0369L240.062 44.4688C240.417 42.8116 241.116 41.3793 242.157 40.1719C243.199 38.9527 244.542 38.0175 246.188 37.3665C247.845 36.7036 249.763 36.3722 251.941 36.3722C253.456 36.3722 254.906 36.5497 256.291 36.9048C257.688 37.2599 258.925 37.8104 260.002 38.5561C261.091 39.3018 261.949 40.2607 262.576 41.4325C263.204 42.5926 263.517 43.9834 263.517 45.6051V64H256.344V60.218H256.131C255.693 61.0703 255.107 61.822 254.373 62.473C253.639 63.1122 252.757 63.6153 251.728 63.9822C250.698 64.3374 249.508 64.5149 248.159 64.5149ZM250.325 59.2947C251.438 59.2947 252.42 59.0758 253.272 58.6378C254.125 58.188 254.793 57.5843 255.279 56.8267C255.764 56.0691 256.007 55.2109 256.007 54.2521V51.358C255.77 51.5118 255.444 51.6539 255.03 51.7841C254.628 51.9025 254.172 52.0149 253.663 52.1214C253.154 52.2161 252.645 52.3049 252.136 52.3878C251.627 52.4588 251.165 52.5239 250.751 52.5831C249.863 52.7133 249.088 52.9205 248.425 53.2045C247.762 53.4886 247.247 53.8733 246.88 54.3587C246.513 54.8321 246.33 55.424 246.33 56.1342C246.33 57.1641 246.703 57.9512 247.449 58.4957C248.206 59.0284 249.165 59.2947 250.325 59.2947ZM283.892 36.7273V42.4091H267.468V36.7273H283.892ZM271.197 30.1932H278.761V55.6193C278.761 56.3177 278.867 56.8622 279.08 57.2528C279.293 57.6316 279.589 57.898 279.968 58.0518C280.359 58.2057 280.808 58.2827 281.317 58.2827C281.673 58.2827 282.028 58.2531 282.383 58.1939C282.738 58.1229 283.01 58.0696 283.2 58.0341L284.389 63.6626C284.01 63.781 283.478 63.9171 282.791 64.071C282.105 64.2367 281.27 64.3374 280.288 64.3729C278.465 64.4439 276.867 64.2012 275.494 63.6449C274.132 63.0885 273.073 62.2244 272.315 61.0526C271.558 59.8807 271.185 58.401 271.197 56.6136V30.1932ZM296.969 48.233V64H289.405V27.6364H296.756V41.5391H297.076C297.691 39.9292 298.685 38.6686 300.059 37.7571C301.432 36.8338 303.154 36.3722 305.225 36.3722C307.119 36.3722 308.771 36.7865 310.179 37.6151C311.6 38.4318 312.701 39.6096 313.482 41.1484C314.275 42.6754 314.666 44.5043 314.654 46.6349V64H307.09V47.9844C307.102 46.3035 306.676 44.9955 305.811 44.0604C304.959 43.1252 303.764 42.6577 302.225 42.6577C301.195 42.6577 300.283 42.8767 299.49 43.3146C298.709 43.7526 298.094 44.3918 297.644 45.2322C297.206 46.0608 296.981 47.0611 296.969 48.233Z" fill="#F9FBFF"/>
</svg>
